<?xml version="1.0" standalone="no"?>
   <!DOCTYPE svg PUBLIC "-//W3C//DTD SVG 1.1//EN" 
   "http://www.w3.org/Graphics/SVG/1.1/DTD/svg11.dtd"><svg id="svg" version="1.1" width="2235" height="1452" xmlns="http://www.w3.org/2000/svg"><path d="M1621.674 250.539 C 1602.866 275.197,1599.808 287.898,1599.222 343.781 C 1598.753 388.454,1599.471 397.346,1604.790 412.781 C 1618.856 453.596,1627.250 510.557,1624.421 546.000 C 1620.816 591.169,1620.322 594.878,1617.539 597.661 C 1613.251 601.949,1597.579 590.802,1584.724 574.318 C 1574.115 560.714,1573.241 558.167,1574.052 543.226 C 1574.609 532.967,1571.620 512.510,1565.968 487.885 C 1561.035 466.398,1557.000 446.300,1557.000 443.223 C 1557.000 436.388,1542.455 405.000,1539.287 405.000 C 1538.035 405.000,1532.637 398.250,1527.291 390.000 C 1521.945 381.750,1516.497 375.000,1515.184 375.000 C 1513.871 375.000,1509.406 369.875,1505.260 363.611 C 1497.083 351.254,1475.098 338.038,1441.996 325.578 C 1402.120 310.569,1332.589 305.719,1315.327 316.743 C 1300.561 326.172,1291.780 338.283,1285.760 357.521 C 1280.400 374.647,1280.313 377.408,1284.447 399.097 L 1288.875 422.329 1269.937 439.907 C 1259.522 449.574,1251.000 458.629,1251.000 460.029 C 1251.000 461.429,1248.462 466.157,1245.360 470.537 C 1241.865 475.470,1238.903 486.706,1237.574 500.068 C 1236.393 511.930,1233.869 523.495,1231.964 525.766 C 1230.059 528.038,1220.879 532.194,1211.565 535.002 C 1175.454 545.889,1163.478 585.379,1183.210 628.500 C 1193.731 651.493,1203.736 680.291,1202.496 684.011 C 1201.844 685.968,1196.141 683.552,1188.718 678.175 C 1181.752 673.129,1174.872 669.000,1173.431 669.000 C 1171.989 669.000,1162.865 663.601,1153.155 657.003 C 1143.445 650.405,1129.058 642.862,1121.185 640.240 C 1113.312 637.619,1102.174 631.046,1096.435 625.633 C 1083.910 613.821,1082.898 602.675,1092.000 576.779 C 1095.300 567.390,1098.000 556.028,1098.000 551.531 C 1098.000 547.034,1099.233 542.592,1100.739 541.661 C 1102.245 540.730,1104.388 534.583,1105.500 528.000 C 1106.612 521.417,1108.755 515.270,1110.261 514.339 C 1117.556 509.830,1106.188 473.279,1092.999 458.836 C 1089.149 454.621,1086.000 449.635,1086.000 447.756 C 1086.000 443.370,1074.108 435.000,1067.878 435.000 C 1056.309 435.000,1037.546 454.556,1023.984 480.750 C 1012.117 503.670,1005.000 512.602,1005.000 504.577 C 1005.000 500.058,958.566 453.776,947.534 447.299 C 937.497 441.407,936.162 441.267,931.784 445.645 C 929.153 448.276,927.000 451.772,927.000 453.414 C 927.000 455.057,923.668 460.768,919.597 466.107 C 913.788 473.722,911.571 481.598,909.304 502.657 C 907.685 517.709,907.497 536.089,908.878 544.500 C 910.232 552.750,910.691 560.582,909.897 561.905 C 908.689 563.918,915.248 612.994,919.652 634.900 C 920.360 638.420,925.002 645.650,929.969 650.967 C 934.936 656.284,939.000 661.807,939.000 663.241 C 939.000 664.674,930.563 676.362,920.250 689.215 C 909.938 702.067,899.760 715.949,897.632 720.064 C 895.505 724.179,889.278 730.620,883.794 734.377 C 870.999 743.145,837.772 750.372,829.627 746.160 C 826.397 744.489,820.082 743.227,815.594 743.354 C 807.715 743.578,807.360 742.900,805.301 723.677 C 804.129 712.727,804.104 688.183,805.247 669.134 C 808.079 621.935,808.390 619.357,814.041 596.064 C 820.353 570.050,820.353 550.855,814.042 541.222 C 809.161 533.772,789.935 522.064,782.370 521.933 C 780.241 521.897,775.531 519.534,771.902 516.683 L 765.304 511.500 770.743 484.500 C 773.735 469.650,777.667 452.100,779.481 445.500 C 786.768 418.993,776.632 392.958,758.488 391.582 C 745.175 390.572,732.000 386.234,732.044 382.875 C 732.069 381.019,734.047 371.194,736.442 361.041 C 746.780 317.199,744.441 306.365,722.204 295.096 C 675.231 271.294,633.233 275.039,610.803 305.031 C 606.020 311.426,596.217 321.180,589.020 326.706 C 581.822 332.232,571.279 340.971,565.592 346.126 C 548.911 361.247,533.251 373.100,522.002 379.120 C 499.242 391.299,481.930 417.066,487.229 430.875 C 488.828 435.043,490.781 432.977,496.238 421.348 C 502.996 406.947,512.768 395.688,524.459 388.833 C 542.454 378.281,559.045 365.418,591.115 337.153 C 610.852 319.759,627.000 304.318,627.000 302.841 C 627.000 299.400,643.358 290.906,653.612 289.023 C 670.635 285.896,718.340 305.540,725.206 318.504 C 735.524 337.983,723.275 378.813,699.218 405.131 C 692.498 412.483,687.000 419.458,687.000 420.632 C 687.000 421.806,684.503 425.181,681.451 428.133 C 677.847 431.619,674.590 441.912,672.158 457.500 C 670.098 470.700,666.931 486.225,665.120 492.000 C 663.309 497.775,661.491 504.525,661.081 507.000 C 660.670 509.475,658.748 517.188,656.808 524.141 C 653.366 536.478,655.399 572.601,659.315 568.685 C 660.316 567.684,661.536 558.458,662.026 548.182 C 662.516 537.907,665.740 519.375,669.192 507.000 C 672.643 494.625,676.940 479.100,678.741 472.500 C 684.982 449.620,693.071 435.262,707.999 420.568 C 716.249 412.447,723.000 404.351,723.000 402.578 C 723.000 397.554,728.870 395.158,732.927 398.525 C 734.943 400.197,742.483 402.243,749.683 403.070 C 756.883 403.897,764.245 406.045,766.043 407.843 C 771.531 413.331,769.700 449.972,762.513 478.500 C 751.244 523.235,747.000 543.984,747.000 554.345 C 747.000 559.761,744.928 569.151,742.397 575.210 C 739.865 581.270,738.495 589.664,739.354 593.864 C 741.057 602.201,744.354 629.214,745.410 643.500 C 746.670 660.527,751.501 649.474,751.966 628.500 C 752.594 600.179,754.739 582.198,758.701 572.055 C 760.516 567.410,762.021 556.610,762.046 548.055 C 762.109 526.578,764.728 523.049,776.672 528.336 C 781.802 530.607,786.000 533.485,786.000 534.732 C 786.000 535.980,788.089 537.000,790.643 537.000 C 793.197 537.000,798.745 540.713,802.972 545.250 C 809.978 552.771,810.525 555.182,809.152 572.527 C 808.324 582.991,806.151 593.049,804.323 594.877 C 802.495 596.705,800.992 605.018,800.983 613.350 C 800.973 621.683,799.598 636.600,797.928 646.500 C 793.053 675.386,794.029 745.934,799.453 756.807 C 801.954 761.820,804.000 772.464,804.000 780.461 C 804.000 788.457,805.259 795.000,806.798 795.000 C 810.651 795.000,812.816 787.032,813.428 770.604 L 813.946 756.708 849.928 756.835 L 885.911 756.962 899.306 742.231 C 919.932 719.548,922.409 716.474,931.717 702.000 C 942.766 684.819,985.000 631.569,997.829 618.644 C 1003.209 613.224,1007.705 606.474,1007.820 603.644 C 1010.069 548.202,1029.439 491.382,1055.980 462.378 C 1070.263 446.768,1071.742 447.410,1085.939 475.380 C 1094.455 492.158,1095.529 496.717,1093.892 509.139 C 1090.230 536.934,1088.269 547.529,1086.238 550.500 C 1085.110 552.150,1083.825 558.225,1083.383 564.000 C 1082.940 569.775,1080.559 585.975,1078.090 600.000 C 1075.622 614.025,1072.466 632.925,1071.077 642.000 C 1067.518 665.252,1063.564 673.922,1050.726 686.620 C 1044.552 692.728,1023.671 713.874,1004.324 733.612 C 984.977 753.350,963.377 773.940,956.324 779.367 C 928.076 801.101,916.164 810.452,909.080 816.453 C 905.000 819.910,898.261 824.260,894.105 826.119 C 889.950 827.979,881.221 835.238,874.707 842.250 C 868.194 849.263,861.170 855.000,859.099 855.000 C 857.027 855.000,847.648 862.088,838.257 870.750 C 828.865 879.413,816.674 889.563,811.165 893.307 C 805.657 897.051,799.719 902.789,797.969 906.057 C 796.220 909.326,792.811 912.000,790.394 912.000 C 787.978 912.000,786.000 914.025,786.000 916.500 C 786.000 918.975,783.975 921.000,781.500 921.000 C 779.025 921.000,777.000 922.961,777.000 925.359 C 777.000 932.870,770.218 945.000,766.018 945.000 C 763.808 945.000,762.000 946.297,762.000 947.883 C 762.000 949.468,753.916 959.256,744.035 969.633 C 734.154 980.010,726.054 990.156,726.035 992.181 C 726.016 994.205,722.288 998.224,717.750 1001.112 C 713.213 1003.999,708.825 1007.075,708.000 1007.948 C 707.175 1008.820,701.209 1013.482,694.742 1018.307 C 678.538 1030.398,652.818 1053.309,651.000 1057.272 C 649.565 1060.400,639.567 1072.585,630.000 1082.863 C 624.224 1089.069,608.814 1108.768,603.000 1117.379 C 600.525 1121.044,594.478 1129.996,589.561 1137.271 C 576.527 1156.560,573.316 1161.890,571.198 1167.750 C 570.154 1170.638,568.265 1173.000,567.000 1173.000 C 565.735 1173.000,563.866 1175.363,562.848 1178.250 C 561.829 1181.138,560.210 1185.188,559.248 1187.250 C 555.995 1194.228,562.620 1191.054,573.631 1180.358 C 579.657 1174.506,588.915 1162.018,594.206 1152.608 C 604.501 1134.296,610.437 1126.564,633.381 1101.584 C 641.422 1092.830,648.011 1084.730,648.025 1083.584 C 648.038 1082.438,654.186 1075.425,661.686 1068.000 C 669.187 1060.575,678.288 1051.350,681.912 1047.499 C 688.220 1040.796,712.504 1021.799,722.815 1015.500 C 727.791 1012.460,756.000 983.844,756.000 981.835 C 756.000 980.335,778.414 950.038,794.348 930.000 C 807.918 912.935,833.701 888.076,837.881 888.028 C 839.190 888.012,845.574 883.085,852.067 877.077 C 858.560 871.070,866.939 864.090,870.686 861.567 C 874.434 859.044,884.321 850.635,892.658 842.880 C 900.995 835.125,910.539 827.916,913.866 826.860 C 917.194 825.804,922.901 820.903,926.548 815.970 C 930.195 811.036,934.857 807.000,936.906 807.000 C 938.956 807.000,945.328 803.206,951.066 798.569 C 956.805 793.932,966.225 787.275,972.000 783.776 C 977.775 780.277,984.877 773.375,987.783 768.439 C 990.689 763.502,999.873 754.466,1008.193 748.358 C 1023.264 737.295,1023.344 737.276,1029.910 743.028 C 1033.534 746.203,1041.900 752.303,1048.500 756.584 C 1096.206 787.522,1093.290 785.532,1104.784 795.000 C 1117.252 805.270,1121.216 809.372,1138.402 829.793 C 1146.598 839.532,1157.759 851.550,1163.203 856.500 C 1188.945 879.903,1217.811 909.024,1230.030 923.915 C 1237.439 932.943,1245.863 942.731,1248.750 945.665 C 1251.638 948.599,1254.000 952.994,1254.000 955.431 C 1254.000 957.868,1257.510 962.162,1261.800 964.973 C 1266.091 967.784,1273.961 974.227,1279.289 979.292 C 1284.617 984.356,1292.920 992.005,1297.739 996.288 C 1302.557 1000.571,1316.625 1015.203,1329.000 1028.803 C 1361.982 1065.051,1374.455 1077.000,1379.308 1077.000 C 1380.716 1077.000,1384.486 1079.392,1387.684 1082.316 C 1390.883 1085.239,1401.600 1093.994,1411.500 1101.771 C 1421.400 1109.547,1432.242 1118.386,1435.594 1121.413 C 1438.946 1124.440,1448.732 1130.873,1457.341 1135.708 C 1465.950 1140.544,1472.995 1145.592,1472.997 1146.927 C 1472.999 1148.262,1474.360 1148.514,1476.022 1147.487 C 1477.684 1146.459,1483.512 1150.092,1488.974 1155.559 C 1498.459 1165.053,1530.625 1188.666,1543.665 1195.708 C 1551.930 1200.171,1578.080 1209.000,1583.034 1209.000 C 1589.397 1209.000,1587.605 1203.119,1580.250 1199.866 C 1567.448 1194.203,1507.650 1153.609,1496.132 1142.762 C 1491.529 1138.428,1482.502 1133.146,1476.071 1131.024 C 1469.641 1128.901,1457.922 1121.828,1450.029 1115.306 C 1442.136 1108.784,1430.576 1100.844,1424.339 1097.663 C 1418.103 1094.481,1413.000 1090.747,1413.000 1089.364 C 1413.000 1087.982,1406.513 1082.272,1398.584 1076.675 C 1374.384 1059.593,1345.906 1034.344,1331.851 1017.508 C 1324.508 1008.712,1312.127 994.836,1304.339 986.674 C 1296.550 978.511,1286.602 967.145,1282.232 961.416 C 1277.863 955.687,1273.079 951.000,1271.601 951.000 C 1267.686 951.000,1237.253 917.916,1227.097 902.617 C 1222.307 895.403,1205.241 876.675,1189.172 861.000 C 1173.103 845.325,1152.951 824.025,1144.390 813.666 C 1130.028 796.288,1099.964 772.761,1078.437 762.055 C 1073.522 759.610,1064.280 753.271,1057.900 747.968 C 1051.520 742.665,1043.526 737.915,1040.135 737.413 C 1029.499 735.838,1031.282 730.456,1048.490 712.203 C 1069.938 689.450,1076.097 677.530,1078.676 653.779 C 1081.537 627.424,1083.661 624.411,1090.465 637.046 C 1094.507 644.550,1099.380 648.423,1108.265 651.190 C 1132.776 658.823,1173.952 680.198,1186.780 691.949 C 1192.816 697.477,1199.609 702.000,1201.877 702.000 C 1204.145 702.000,1206.000 703.350,1206.000 705.000 C 1206.000 706.650,1207.790 708.000,1209.977 708.000 C 1212.164 708.000,1217.125 711.375,1221.000 715.500 C 1224.875 719.625,1229.161 723.000,1230.523 723.000 C 1235.981 723.000,1232.433 715.172,1222.247 704.741 C 1213.010 695.282,1211.998 692.922,1215.066 688.010 C 1218.005 683.303,1217.254 679.424,1210.819 666.084 C 1206.518 657.170,1203.000 647.883,1203.000 645.447 C 1203.000 639.135,1193.315 618.000,1190.423 618.000 C 1189.090 618.000,1188.000 614.705,1188.000 610.677 C 1188.000 606.649,1186.594 602.485,1184.875 601.423 C 1179.088 597.846,1186.126 562.874,1194.273 554.727 C 1208.381 540.619,1247.289 530.032,1276.129 532.453 C 1286.233 533.301,1302.524 534.660,1312.332 535.472 C 1329.352 536.881,1354.278 544.161,1360.350 549.496 C 1361.918 550.873,1365.160 552.000,1367.556 552.000 C 1372.746 552.000,1394.131 574.958,1396.898 583.500 C 1397.967 586.800,1403.377 594.186,1408.921 599.913 C 1414.464 605.639,1419.000 611.177,1419.000 612.218 C 1419.000 613.258,1426.432 626.123,1435.515 640.805 C 1444.597 655.487,1453.256 670.200,1454.756 673.500 C 1456.255 676.800,1460.974 684.150,1465.241 689.833 C 1469.508 695.516,1473.000 701.718,1473.000 703.616 C 1473.000 705.514,1476.373 710.989,1480.496 715.783 C 1484.619 720.578,1487.994 728.100,1487.996 732.500 C 1487.998 736.900,1489.013 740.950,1490.250 741.500 C 1493.802 743.079,1503.488 773.784,1501.466 777.055 C 1498.356 782.086,1484.761 780.312,1468.799 772.792 C 1460.385 768.828,1445.757 762.162,1436.294 757.979 C 1417.980 749.882,1370.462 712.232,1364.559 701.139 C 1362.616 697.488,1356.942 689.404,1351.950 683.175 C 1343.909 673.140,1336.262 657.193,1333.888 645.510 C 1332.643 639.381,1325.301 635.861,1317.000 637.414 C 1303.259 639.985,1249.624 640.119,1240.803 637.604 C 1227.442 633.796,1233.691 640.698,1250.225 648.011 C 1261.568 653.029,1267.902 653.864,1283.850 652.446 C 1294.658 651.485,1306.538 649.945,1310.250 649.024 C 1317.720 647.171,1319.640 652.345,1312.500 655.085 C 1310.025 656.035,1308.000 658.879,1308.000 661.406 C 1308.000 663.933,1305.885 666.000,1303.300 666.000 C 1300.715 666.000,1294.302 669.238,1289.050 673.196 C 1283.797 677.154,1273.584 682.364,1266.353 684.774 C 1252.371 689.434,1254.058 695.049,1268.421 691.656 C 1279.606 689.014,1310.505 672.495,1317.677 665.323 C 1324.556 658.444,1326.903 660.210,1331.984 676.094 C 1335.587 687.357,1359.983 714.609,1375.658 724.879 C 1382.849 729.591,1382.878 729.789,1377.725 739.079 C 1374.851 744.260,1368.788 751.995,1364.250 756.268 C 1359.713 760.540,1355.996 765.265,1355.992 766.768 C 1355.988 768.270,1349.748 774.900,1342.126 781.500 C 1334.504 788.100,1325.095 796.439,1321.217 800.030 C 1317.339 803.622,1308.450 809.970,1301.463 814.136 C 1291.750 819.928,1289.907 822.153,1293.637 823.584 C 1296.320 824.614,1301.662 823.489,1305.508 821.085 C 1309.353 818.681,1315.875 815.914,1320.000 814.936 C 1327.454 813.169,1348.158 793.560,1375.891 762.000 C 1383.865 752.925,1390.824 744.866,1391.355 744.090 C 1392.730 742.082,1418.820 756.257,1428.101 764.055 C 1432.392 767.661,1439.862 771.566,1444.702 772.733 C 1449.541 773.901,1459.285 778.038,1466.356 781.928 C 1479.270 789.032,1500.649 791.352,1508.320 786.484 C 1510.421 785.150,1512.705 781.129,1513.394 777.548 C 1514.692 770.808,1507.355 745.312,1502.239 738.788 C 1500.638 736.747,1500.107 733.049,1501.057 730.572 C 1502.383 727.118,1504.512 726.723,1510.182 728.879 C 1514.250 730.426,1522.178 730.945,1527.800 730.032 C 1535.928 728.713,1538.738 726.391,1541.522 718.691 C 1545.181 708.572,1543.208 682.101,1538.581 679.241 C 1537.161 678.364,1536.000 675.171,1536.000 672.145 C 1536.000 669.120,1528.689 652.578,1519.753 635.386 C 1495.290 588.319,1478.414 544.373,1494.372 569.292 C 1502.424 581.866,1537.423 599.098,1559.250 601.235 C 1575.090 602.785,1578.010 601.210,1571.450 594.650 C 1563.477 586.677,1572.540 587.852,1581.812 595.994 C 1590.754 603.845,1598.841 608.064,1614.375 612.981 C 1617.787 614.061,1619.872 619.770,1621.324 632.012 C 1623.788 652.782,1628.574 668.489,1634.683 675.858 C 1637.126 678.805,1639.885 686.905,1640.813 693.858 C 1641.741 700.811,1643.850 706.500,1645.500 706.500 C 1651.100 706.500,1649.447 683.245,1642.537 664.833 C 1635.433 645.902,1627.699 604.532,1630.436 600.103 C 1633.812 594.642,1640.999 549.546,1640.999 533.829 C 1641.000 524.659,1638.339 502.674,1635.087 484.973 C 1631.835 467.271,1628.905 447.773,1628.576 441.644 C 1628.247 435.515,1627.139 429.150,1626.114 427.500 C 1620.647 418.696,1616.855 400.125,1615.361 374.835 C 1614.440 359.251,1612.311 341.275,1610.631 334.889 C 1607.073 321.372,1610.892 301.774,1621.963 276.741 C 1634.387 248.648,1642.730 251.722,1648.800 286.626 C 1652.319 306.864,1658.301 322.315,1679.326 365.473 C 1681.998 370.958,1687.374 379.058,1691.272 383.473 C 1718.706 414.544,1734.216 436.851,1743.018 457.898 C 1752.301 480.094,1754.578 487.073,1760.999 513.000 C 1762.430 518.775,1765.826 530.250,1768.547 538.500 C 1779.253 570.964,1782.246 580.734,1783.249 586.500 C 1784.770 595.242,1788.284 603.490,1794.115 612.000 C 1796.942 616.125,1800.173 623.748,1801.297 628.939 C 1802.421 634.130,1805.964 640.752,1809.170 643.654 C 1812.377 646.556,1815.042 651.083,1815.094 653.715 C 1815.145 656.347,1818.513 663.900,1822.578 670.500 C 1826.643 677.100,1829.976 684.795,1829.985 687.601 C 1829.993 690.406,1831.721 693.781,1833.824 695.101 C 1839.725 698.803,1856.236 732.111,1858.669 745.221 C 1859.866 751.667,1862.671 760.442,1864.904 764.721 C 1867.136 768.999,1868.971 775.305,1868.982 778.733 C 1868.992 782.161,1872.220 792.961,1876.156 802.733 C 1883.280 820.419,1900.416 901.268,1897.908 905.355 C 1897.184 906.535,1898.508 918.300,1900.851 931.500 C 1903.194 944.700,1906.525 965.625,1908.253 978.000 C 1911.522 1001.416,1921.455 1043.814,1925.703 1052.492 C 1927.052 1055.246,1931.869 1069.650,1936.408 1084.500 C 1949.383 1126.954,1958.151 1145.670,1971.818 1160.095 C 1985.986 1175.047,2010.000 1192.444,2010.000 1187.755 C 2010.000 1184.134,1995.263 1170.000,1991.488 1170.000 C 1990.038 1170.000,1987.464 1166.963,1985.769 1163.250 C 1984.073 1159.538,1979.461 1150.425,1975.520 1143.000 C 1971.579 1135.575,1968.274 1127.632,1968.177 1125.350 C 1968.080 1123.067,1963.500 1112.267,1958.000 1101.350 C 1952.501 1090.432,1946.220 1074.750,1944.044 1066.500 C 1941.868 1058.250,1938.444 1049.475,1936.436 1047.000 C 1929.955 1039.015,1924.974 1008.316,1919.887 945.000 C 1918.230 924.375,1915.498 900.075,1913.816 891.000 C 1912.134 881.925,1909.571 864.704,1908.120 852.731 C 1905.747 833.146,1898.392 807.443,1892.888 799.500 C 1890.322 795.797,1879.343 760.991,1876.575 747.784 C 1875.455 742.441,1873.292 737.299,1871.769 736.357 C 1870.246 735.416,1869.000 732.026,1869.000 728.823 C 1869.000 725.620,1867.980 723.000,1866.734 723.000 C 1865.488 723.000,1862.949 718.613,1861.093 713.250 C 1848.633 677.256,1843.593 666.301,1829.250 644.038 C 1823.063 634.434,1818.000 625.321,1818.000 623.788 C 1818.000 622.255,1816.814 621.000,1815.364 621.000 C 1813.914 621.000,1811.050 616.950,1809.000 612.000 C 1806.950 607.050,1804.086 603.000,1802.636 603.000 C 1801.186 603.000,1800.000 600.847,1800.000 598.216 C 1800.000 592.112,1788.543 552.168,1784.820 545.291 C 1783.269 542.426,1782.000 536.768,1782.000 532.718 C 1782.000 528.668,1780.838 524.636,1779.418 523.758 C 1776.480 521.943,1766.267 487.858,1765.697 477.966 C 1765.490 474.372,1762.999 468.866,1760.160 465.730 C 1757.322 462.594,1755.000 457.855,1755.000 455.199 C 1755.000 446.491,1736.188 415.762,1722.960 402.862 C 1715.832 395.911,1710.000 388.225,1710.000 385.782 C 1710.000 383.338,1706.139 379.058,1701.419 376.270 C 1693.011 371.304,1680.251 345.803,1674.103 321.682 C 1672.727 316.283,1669.537 308.714,1667.014 304.864 C 1664.492 301.014,1660.400 288.069,1657.922 276.097 C 1653.264 253.591,1644.571 240.000,1634.833 240.000 C 1632.017 240.000,1626.095 244.742,1621.674 250.539 M408.000 263.836 C 408.000 265.396,404.288 268.434,399.750 270.586 C 394.334 273.155,388.408 280.842,382.500 292.960 C 377.550 303.113,372.039 313.238,370.253 315.460 C 368.467 317.682,365.271 324.225,363.151 330.000 C 361.031 335.775,357.534 344.550,355.380 349.500 C 353.225 354.450,350.537 362.550,349.406 367.500 C 346.748 379.133,339.664 396.205,328.895 416.936 C 315.772 442.198,312.774 447.067,298.371 466.500 C 279.806 491.549,269.631 508.725,268.628 516.706 C 268.158 520.443,266.863 528.900,265.749 535.500 C 264.635 542.100,262.365 556.275,260.704 567.000 C 259.044 577.725,256.380 591.900,254.785 598.500 C 253.189 605.100,250.722 626.700,249.301 646.500 C 247.282 674.640,244.331 690.033,235.783 717.000 C 221.957 760.614,220.046 779.208,226.137 810.807 C 228.755 824.388,231.559 849.675,232.368 867.000 C 233.177 884.325,235.033 906.513,236.493 916.307 C 237.953 926.101,238.530 936.474,237.775 939.359 C 237.021 942.243,237.892 949.111,239.710 954.621 C 246.565 975.393,249.791 1059.182,245.634 1108.500 C 240.928 1164.339,240.096 1185.000,242.554 1185.000 C 247.691 1185.000,254.544 1166.989,256.253 1149.000 C 257.774 1132.982,261.484 1059.429,261.321 1048.500 C 261.297 1046.850,260.385 1036.725,259.294 1026.000 C 258.204 1015.275,257.430 1003.125,257.576 999.000 C 257.721 994.875,256.387 982.050,254.611 970.500 C 252.835 958.950,251.008 942.075,250.551 933.000 C 250.093 923.925,248.888 903.675,247.871 888.000 C 246.855 872.325,245.419 848.700,244.681 835.500 C 243.943 822.300,241.729 806.964,239.761 801.421 C 235.818 790.312,237.539 751.504,242.390 742.125 C 253.500 720.647,262.085 685.528,265.401 648.000 C 266.057 640.575,268.025 625.725,269.774 615.000 C 271.523 604.275,273.013 586.050,273.084 574.500 C 273.155 562.950,275.068 545.741,277.334 536.259 C 279.601 526.776,280.354 518.337,279.009 517.506 C 274.392 514.652,279.734 503.909,292.828 489.713 C 300.037 481.896,305.950 474.641,305.968 473.592 C 305.986 472.542,311.738 463.304,318.750 453.062 C 333.730 431.184,332.737 432.918,344.636 407.858 C 352.321 391.674,356.750 379.703,364.562 354.000 C 369.111 339.036,379.099 317.823,383.197 314.421 C 385.546 312.472,390.654 304.590,394.548 296.905 C 405.484 275.324,422.822 266.805,432.517 278.250 C 442.699 290.269,452.849 343.083,449.823 368.296 C 448.687 377.758,441.512 401.244,433.879 420.486 C 426.246 439.729,420.000 457.053,420.000 458.984 C 420.000 460.914,416.056 471.496,411.236 482.497 C 406.416 493.499,402.028 504.454,401.486 506.843 C 400.156 512.701,381.621 530.209,370.500 536.112 C 343.519 550.434,333.937 564.718,321.260 609.514 C 314.970 631.740,315.171 642.016,321.539 623.736 C 327.319 607.143,348.319 566.659,353.886 561.377 C 360.536 555.068,367.117 550.847,385.500 541.101 C 393.750 536.727,404.677 529.965,409.783 526.074 C 414.889 522.183,420.215 519.000,421.619 519.000 C 423.023 519.000,427.621 515.726,431.836 511.724 C 439.727 504.233,454.698 493.382,489.539 469.900 C 500.560 462.472,511.125 453.503,513.016 449.970 C 514.907 446.437,518.714 441.198,521.477 438.329 C 524.240 435.460,533.241 425.100,541.480 415.306 C 558.389 395.207,602.834 351.000,606.132 351.000 C 607.321 351.000,613.515 345.837,619.897 339.526 C 626.279 333.215,635.888 325.499,641.250 322.379 C 646.613 319.259,651.000 315.647,651.000 314.353 C 651.000 310.927,650.113 311.185,630.375 320.363 C 605.133 332.100,562.189 372.115,527.951 415.801 C 508.263 440.920,495.655 454.172,487.017 458.826 C 480.152 462.524,466.680 470.715,457.080 477.028 C 447.480 483.340,438.653 487.903,437.463 487.168 C 436.274 486.433,433.836 488.570,432.045 491.916 C 430.254 495.262,427.028 498.000,424.876 498.000 C 422.724 498.000,419.425 501.375,417.546 505.500 C 415.666 509.625,412.838 513.000,411.260 513.000 C 409.682 513.000,412.843 503.213,418.285 491.250 C 423.728 479.288,429.815 462.768,431.812 454.540 C 433.810 446.312,436.588 438.201,437.987 436.516 C 440.548 433.430,445.362 420.960,456.212 389.310 C 464.001 366.585,463.111 351.475,450.903 299.192 C 447.128 283.028,444.083 277.060,435.976 269.942 C 426.145 261.311,408.000 257.350,408.000 263.836 M1380.000 325.709 C 1392.375 328.295,1407.833 331.012,1414.351 331.747 C 1420.870 332.482,1429.057 335.765,1432.545 339.042 C 1436.033 342.319,1440.446 345.000,1442.351 345.000 C 1446.614 345.000,1467.859 355.874,1482.000 365.294 C 1495.154 374.057,1510.934 390.915,1513.474 398.918 C 1514.536 402.263,1516.558 405.000,1517.968 405.000 C 1521.630 405.000,1539.003 440.734,1538.985 448.229 C 1538.972 453.898,1545.070 475.017,1551.192 490.500 C 1552.497 493.800,1554.183 505.626,1554.939 516.779 C 1555.695 527.933,1557.567 538.733,1559.100 540.779 C 1560.632 542.826,1561.565 549.225,1561.174 555.000 C 1560.782 560.775,1560.358 569.840,1560.231 575.144 C 1559.895 589.167,1552.609 591.835,1536.000 584.015 C 1521.012 576.958,1482.000 539.816,1482.000 532.603 C 1482.000 530.072,1479.933 528.000,1477.406 528.000 C 1474.879 528.000,1471.940 525.638,1470.875 522.750 C 1469.809 519.863,1468.007 516.825,1466.869 516.000 C 1465.731 515.175,1460.412 504.375,1455.047 492.000 C 1432.604 440.223,1434.574 442.644,1408.500 434.775 C 1401.900 432.783,1394.475 430.400,1392.000 429.480 C 1389.525 428.561,1382.052 427.691,1375.394 427.548 C 1360.500 427.228,1342.911 414.799,1338.191 401.259 C 1335.789 394.369,1334.035 392.765,1331.581 395.219 C 1329.127 397.673,1330.344 402.322,1336.164 412.736 C 1340.522 420.533,1343.545 427.455,1342.883 428.117 C 1340.782 430.218,1330.874 430.130,1319.336 427.909 C 1302.040 424.580,1299.000 417.633,1299.000 381.437 C 1299.000 355.192,1299.981 348.620,1305.149 340.259 C 1311.940 329.271,1316.714 327.097,1341.000 323.935 C 1350.075 322.753,1357.500 321.611,1357.500 321.397 C 1357.500 321.182,1367.625 323.123,1380.000 325.709 M1403.531 445.076 C 1406.264 447.549,1409.175 449.558,1410.000 449.541 C 1416.516 449.403,1428.000 454.343,1428.000 457.282 C 1428.000 459.280,1438.800 482.588,1452.000 509.080 C 1465.200 535.571,1476.025 559.778,1476.055 562.873 C 1476.085 565.968,1480.177 574.504,1485.149 581.841 C 1490.120 589.179,1493.486 597.012,1492.628 599.249 C 1491.770 601.485,1493.232 606.618,1495.878 610.656 C 1498.524 614.694,1504.341 628.461,1508.806 641.249 C 1513.270 654.037,1519.272 668.979,1522.143 674.453 C 1525.015 679.928,1526.824 686.003,1526.163 687.953 C 1525.502 689.904,1526.647 695.531,1528.707 700.458 C 1533.685 712.362,1529.528 720.000,1518.071 720.000 C 1513.277 720.000,1508.520 718.650,1507.500 717.000 C 1506.480 715.350,1501.839 714.000,1497.187 714.000 C 1490.543 714.000,1487.895 711.990,1484.849 704.636 C 1482.716 699.485,1472.427 682.583,1461.985 667.074 C 1451.543 651.566,1443.000 638.045,1443.000 637.027 C 1443.000 636.009,1437.119 626.250,1429.930 615.338 C 1422.742 604.427,1413.302 588.477,1408.953 579.894 C 1394.764 551.893,1365.133 528.000,1344.596 528.000 C 1339.843 528.000,1329.327 525.990,1321.227 523.532 C 1312.426 520.863,1294.366 519.052,1276.344 519.032 L 1246.189 519.000 1248.178 499.777 C 1251.409 468.562,1263.270 453.465,1291.698 444.380 C 1306.593 439.621,1316.773 438.846,1354.031 439.636 C 1388.384 440.364,1399.699 441.607,1403.531 445.076 M966.000 480.017 C 977.589 487.724,987.928 498.120,998.345 512.540 C 1005.772 522.819,1005.797 527.286,998.734 580.713 L 995.533 604.927 974.502 626.463 C 962.935 638.308,951.866 648.000,949.904 648.000 C 947.942 648.000,942.143 644.169,937.017 639.487 C 926.802 630.158,926.693 629.660,920.805 565.805 C 916.066 514.398,919.764 487.094,934.157 467.238 L 940.146 458.976 947.823 466.005 C 952.045 469.871,960.225 476.177,966.000 480.017 M1467.000 806.981 C 1467.000 813.847,1472.256 819.634,1483.500 825.147 C 1486.800 826.765,1493.550 830.670,1498.500 833.825 C 1503.450 836.980,1510.458 839.660,1514.073 839.781 C 1517.688 839.901,1521.502 841.386,1522.549 843.080 C 1523.596 844.773,1526.038 845.840,1527.976 845.450 C 1529.914 845.060,1534.474 846.388,1538.109 848.401 C 1541.743 850.413,1557.516 854.634,1573.159 857.781 C 1605.563 864.300,1633.754 876.699,1655.809 894.132 C 1664.164 900.736,1671.000 904.912,1671.000 903.413 C 1671.000 897.907,1662.699 884.914,1655.630 879.353 C 1647.615 873.048,1610.717 855.000,1605.842 855.000 C 1604.150 855.000,1592.806 851.760,1580.633 847.799 C 1568.460 843.839,1546.350 838.359,1531.500 835.621 C 1503.882 830.528,1488.053 822.840,1474.028 807.707 L 1467.000 800.124 1467.000 806.981 M1566.000 869.943 C 1566.000 871.561,1569.713 873.787,1574.250 874.889 C 1595.974 880.163,1644.916 907.159,1651.000 917.225 C 1652.375 919.499,1657.437 925.845,1662.250 931.326 C 1667.062 936.808,1671.000 942.741,1671.000 944.513 C 1671.000 946.284,1674.375 952.707,1678.500 958.785 C 1682.625 964.864,1686.000 971.804,1686.000 974.209 C 1686.000 976.613,1693.425 989.971,1702.500 1003.893 C 1711.575 1017.816,1719.048 1031.523,1719.106 1034.353 C 1719.165 1037.184,1721.021 1042.764,1723.231 1046.753 L 1727.250 1054.007 1730.667 1047.622 C 1735.523 1038.548,1730.929 1021.108,1718.124 1000.016 C 1712.276 990.382,1701.638 971.418,1694.484 957.873 C 1687.330 944.328,1676.258 927.004,1669.881 919.374 C 1659.150 906.537,1620.935 879.000,1613.850 879.000 C 1612.151 879.000,1605.469 876.300,1599.000 873.000 C 1586.758 866.754,1566.000 864.831,1566.000 869.943 " stroke="none" fill="black" fill-rule="evenodd"/></svg>